<svg width="672" height="344" viewBox="0 0 672 344" fill="none" xmlns="http://www.w3.org/2000/svg">
<path d="M670 34.2752C661.67 32.3187 652.175 17.808 644.258 11.3005C639.616 7.48406 632.859 4.50466 627.955 4.34759C615.846 3.95977 603.778 1.62689 591.702 1.62689C565.393 1.62689 541.683 5.86665 520.411 36.9959C498.254 69.4217 476.293 102.189 455.842 140.231C445.274 159.89 434.636 179.315 424.738 200.238C419.703 210.879 414.407 223.869 408.435 232.886C402.754 241.463 397.427 251.023 392.56 261.604C390.904 265.207 389.331 271.47 387.269 273.848C374.904 288.104 362.06 296.209 348.513 304.984C309.825 330.046 269.434 341.714 228.957 341.714C177.502 341.714 123.213 330.288 77.6523 276.115C65.7902 262.01 58.197 241.197 47.7632 223.666C40.0162 210.649 32.4687 197.302 24.5956 184.82C17.5174 173.599 5.97669 157.194 2 140.382" stroke="#0AD975" stroke-width="3" stroke-linecap="round"/>
</svg>
